<?xml version="1.0" encoding="UTF-8" standalone="no"?>
<svg
   xmlns:dc="http://purl.org/dc/elements/1.1/"
   xmlns:cc="http://creativecommons.org/ns#"
   xmlns:rdf="http://www.w3.org/1999/02/22-rdf-syntax-ns#"
   xmlns:svg="http://www.w3.org/2000/svg"
   xmlns="http://www.w3.org/2000/svg"
   xmlns:sodipodi="http://sodipodi.sourceforge.net/DTD/sodipodi-0.dtd"
   xmlns:inkscape="http://www.inkscape.org/namespaces/inkscape"
   width="2500"
   height="2500"
   viewBox="5.5 797.5 175 175"
   version="1.1"
   id="svg15"
   sodipodi:docname="bootstrap-icon.svg"
   inkscape:version="0.92.2 (5c3e80d, 2017-08-06)">
  <metadata
     id="metadata21">
    <rdf:RDF>
      <cc:Work
         rdf:about="">
        <dc:format>image/svg+xml</dc:format>
        <dc:type
           rdf:resource="http://purl.org/dc/dcmitype/StillImage" />
      </cc:Work>
    </rdf:RDF>
  </metadata>
  <defs
     id="defs19">
    <filter
       inkscape:collect="always"
       style="color-interpolation-filters:sRGB"
       id="filter4549"
       x="-0.6140949"
       width="2.2281898"
       y="-1.8950558"
       height="4.7901115">
      <feGaussianBlur
         inkscape:collect="always"
         stdDeviation="638.1749"
         id="feGaussianBlur4551" />
    </filter>
  </defs>
  <sodipodi:namedview
     pagecolor="#ffffff"
     bordercolor="#666666"
     borderopacity="1"
     objecttolerance="10"
     gridtolerance="10"
     guidetolerance="10"
     inkscape:pageopacity="0"
     inkscape:pageshadow="2"
     inkscape:window-width="1920"
     inkscape:window-height="1137"
     id="namedview17"
     showgrid="false"
     inkscape:zoom="0.13350176"
     inkscape:cx="70.593539"
     inkscape:cy="1490.2446"
     inkscape:window-x="-8"
     inkscape:window-y="-8"
     inkscape:window-maximized="1"
     inkscape:current-layer="svg15" />
  <g
     id="g13"
     style="fill:#555555;fill-opacity:1">
    <linearGradient
       id="a"
       gradientUnits="userSpaceOnUse"
       x1="-64.999"
       y1="1381.5"
       x2="-64.999"
       y2="1206.5"
       gradientTransform="translate(158 -409)">
      <stop
         offset="0"
         stop-color="#3bb1dc"
         id="stop2" />
      <stop
         offset="1"
         stop-color="#60f0ff"
         id="stop4" />
    </linearGradient>
    <path
       fill="url(#a)"
       d="M151.333 799.216c7.292 0 14.183 2.861 19.388 8.062 5.204 5.205 8.062 12.097 8.062 19.389v116.666c0 7.292-2.859 14.184-8.062 19.387-5.205 5.205-12.097 8.064-19.388 8.064H34.667c-7.292 0-14.183-2.859-19.387-8.064-5.205-5.203-8.064-12.095-8.064-19.387V826.667c0-7.292 2.859-14.184 8.064-19.389 5.205-5.201 12.096-8.062 19.387-8.062h116.666m0-1.716H34.667C18.625 797.5 5.5 810.625 5.5 826.667v116.666c0 16.042 13.125 29.167 29.167 29.167h116.666c16.042 0 29.167-13.125 29.167-29.167V826.667c0-16.042-13.125-29.167-29.167-29.167z"
       id="path7"
       style="fill:#555555;fill-opacity:1" />
    <g
       id="g11"
       style="fill:#555555;fill-opacity:1">
      <path
         fill="#3BB1DC"
         d="M53.053 835.533h49.612c9.149 0 16.499 2.085 22.019 6.289 5.52 4.203 8.293 10.521 8.293 19.015 0 5.147-1.258 9.552-3.773 13.212-2.518 3.659-6.119 6.521-10.811 8.521v.283c6.293 1.346 11.066 4.318 14.297 8.923 3.231 4.633 4.861 10.408 4.861 17.387 0 4.003-.715 7.75-2.145 11.209-1.43 3.487-3.661 6.493-6.721 9.006-3.06 2.517-6.947 4.521-11.724 6.006-4.774 1.488-10.438 2.231-17.013 2.231H53.053V835.533zm17.872 42.748h29.167c4.29 0 7.863-1.201 10.723-3.66 2.86-2.459 4.289-5.948 4.289-10.525 0-5.146-1.287-8.775-3.858-10.862-2.573-2.089-6.291-3.146-11.152-3.146H70.925v28.193zm0 44.752h31.597c5.435 0 9.666-1.404 12.642-4.234 3.001-2.802 4.519-6.806 4.519-11.953 0-5.061-1.488-8.921-4.519-11.667-3.031-2.744-7.207-4.06-12.642-4.06H70.925v31.914z"
         id="path9"
         style="fill:#555555;fill-opacity:1" />
    </g>
  </g>
  <path
     style="stroke-width:3.74526906;fill:#555555;fill-opacity:1"
     d="M 680.43213,1272.9118 V 546.1671 h 383.76127 c 416.7455,0 428.4114,0.49065 499.3506,21.00184 77.7929,22.49284 144.5873,63.27809 186.4169,113.82784 22.7753,27.52319 48.1579,80.36448 58.4695,121.72124 7.1427,28.64692 8.3846,43.54729 8.2723,99.24963 -0.1464,72.56949 -5.6235,101.99495 -27.8113,149.41175 -29.6246,63.3095 -87.9559,120.2178 -158.2092,154.3495 -17.6645,8.582 -21.8198,13.7194 -12.9965,16.0677 68.3516,18.1913 116.7522,42.7241 155.3871,78.761 65.1045,60.7266 101.148,143.9726 109.4243,252.7264 18.2326,239.584 -115.6153,390.6432 -387.469,437.2929 -33.3639,5.7252 -79.8733,6.5716 -426.0243,7.7532 l -388.57167,1.3264 z m 778.23757,514.5644 c 80.6005,-16.3768 141.0124,-69.5232 163.6237,-143.9453 9.3962,-30.9263 11.6617,-107.2902 4.2221,-142.3202 -16.7995,-79.1031 -70.8343,-133.3096 -155.8316,-156.3268 -22.1269,-5.9919 -47.7119,-6.5924 -280.8952,-6.5924 H 933.23779 l -0.96533,227.5251 -0.96533,227.5251 h 249.24727 c 211.4441,0 253.6257,-0.8897 278.1153,-5.8655 z m -38.5469,-639.8347 c 50.4387,-14.8864 94.155,-45.8443 118.24,-83.7318 19.9759,-31.4238 27.7633,-64.08716 27.4477,-115.12619 -0.5724,-92.5604 -24.951,-142.28515 -84.3194,-171.98599 -52.2969,-26.16306 -56.4714,-26.51327 -316.0466,-26.51327 H 933.23779 l -0.97355,198.49926 c -0.53545,109.17459 -0.13093,200.69999 0.89893,203.38969 1.5207,3.9718 45.32712,4.6284 233.18023,3.4956 207.7923,-1.2532 233.5923,-2.0693 253.7794,-8.0273 z"
     id="path23"
     inkscape:connector-curvature="0"
     transform="matrix(0.07,0,0,0.07,5.5,797.5)" />
  <path
     style="stroke-width:3.74526906;fill:#555555;fill-opacity:1"
     d="M 2478.1612,1203.0873 V 656.278 h 9.3632 9.3632 l 0.45,360.4821 c 0.2475,198.2652 0.8891,438.0092 1.4258,532.7646 0.5366,94.7553 0.1497,178.6025 -0.8598,186.3271 -1.5423,11.801 -3.2659,14.0447 -10.7889,14.0447 h -8.9535 z"
     id="path25"
     inkscape:connector-curvature="0"
     transform="matrix(0.07,0,0,0.07,5.5,797.5)" />
  <path
     style="stroke-width:3.74526906;fill:#555555;fill-opacity:1"
     d="m 2.5384466,593.02217 c 0,-238.01186 0.7482149,-249.16213 20.6449294,-307.66089 C 59.342349,179.04949 139.49119,88.900922 239.53173,42.020346 279.09413,23.480782 328.19703,9.3069026 369.09897,4.6199034 414.34365,-0.56473559 2091.3448,-0.47488127 2132.7301,4.7143995 2299.7859,25.661427 2440.2309,147.24398 2483.8684,308.69298 c 13.7715,50.95175 17.6289,114.41652 14.5816,239.90854 l -2.6147,107.67648 h -8.4437 -8.4436 l -1.8384,-145.12917 c -2.0198,-159.44042 -3.4038,-171.51763 -26.8208,-234.0491 -23.9981,-64.08302 -73.5588,-130.25785 -130.1923,-173.83636 -46.4366,-35.732181 -111.3556,-63.980194 -171.0732,-74.438615 -47.2257,-8.270697 -1751.39486,-8.270697 -1798.62056,0 C 208.77866,53.627567 89.444522,156.40526 43.686732,292.98691 26.653344,343.82959 25.360009,361.11513 25.02186,542.4446 24.845564,636.9814 23.671713,736.66084 22.413301,763.95449 20.157351,812.88365 20.002015,813.5793 11.331863,813.5793 H 2.5384466 Z"
     id="path27"
     inkscape:connector-curvature="0"
     transform="matrix(0.07,0,0,0.07,5.5,797.5)" />
  <path
     style="stroke-width:3.74526906;fill:#555555;fill-opacity:1"
     d="m 22.154702,1647.838 c -0.888804,-40.2116 -0.901549,-40.2617 -10.253083,-40.2617 H 2.5384466 V 1211.0144 814.45253 l 8.9153464,-1.70428 8.915347,-1.70428 2.571656,296.20763 c 1.414411,162.9142 2.016393,360.2517 1.337737,438.5278 -0.678656,78.2761 -1.63438,124.2025 -2.123831,102.0586 z"
     id="path29"
     inkscape:connector-curvature="0"
     transform="matrix(0.07,0,0,0.07,5.5,797.5)" />
  <path
     style="stroke-width:3.74526906;fill:#555555;fill-opacity:1"
     d="M 22.018505,1996.148 21.264791,1892.2168 H 11.901619 2.5384466 v -142.3203 c 0,-125.0367 0.693498,-142.3202 5.7106019,-142.3202 13.6345355,0 14.7104775,15.2835 15.9516085,226.5888 0.665451,113.2944 0.616282,219.4728 -0.109264,235.9519 -0.725546,16.4792 -1.658346,-16.8069 -2.072888,-73.969 z"
     id="path31"
     inkscape:connector-curvature="0"
     transform="matrix(0.07,0,0,0.07,5.5,797.5)" />
  <path
     style="stroke-width:3.74526906;fill:#555555;fill-opacity:1"
     d="M 360.28711,2494.8099 C 203.88626,2471.7941 74.065541,2363.7182 23.017768,2214.0326 5.4873894,2162.6289 2.5384466,2132.9365 2.5384466,2007.8295 v -115.6127 h 9.3631724 9.363172 l 0.05928,88.9501 c 0.03262,48.9226 1.671877,108.4056 3.642828,132.1846 8.199893,98.9292 49.94593,185.9986 122.151941,254.7714 48.09941,45.8123 105.44293,77.78 172.99665,96.4414 l 36.35087,10.0418 872.64764,1.1639 c 650.4937,0.8676 881.2288,0.048 906.3551,-3.2179 84.1372,-10.9373 155.4991,-46.0107 220.3622,-108.3052 46.0074,-44.1854 79.3752,-95.4942 98.6801,-151.7378 20.7272,-60.3875 20.795,-61.1953 22.5751,-268.7949 l 1.6619,-193.8177 h 9.2762 9.2763 l -1.345,203.1809 -1.3449,203.1808 -10.0817,34.8551 c -42.8671,148.2017 -150.4704,253.5882 -302.2443,296.0178 l -35.5801,9.9466 -882.0108,0.514 c -491.45199,0.2865 -891.92799,-0.9454 -904.40699,-2.7818 z"
     id="path33"
     inkscape:connector-curvature="0"
     transform="matrix(0.07,0,0,0.07,5.5,797.5)" />
  <path
     style="fill:#555555;stroke-width:2.64830518;fill-opacity:1"
     d="M 682.53612,1272.0492 V 546.11132 l 380.69388,1.41807 c 383.1981,1.4274 419.9239,2.33396 464.091,11.45593 30.2195,6.2413 79.5871,23.23088 108.161,37.22294 92.1362,45.11726 146.2384,110.4055 171.4417,206.88859 12.3977,47.46089 11.5637,153.92826 -1.5806,201.77575 -3.001,10.9243 -11.2767,31.8588 -18.3904,46.5212 -30.2154,62.2787 -80.3834,112.1027 -151.6888,150.6488 -12.745,6.8897 -23.1727,13.9129 -23.1727,15.6072 0,1.6943 14.037,7.5575 31.1934,13.0293 140.7317,44.8849 217.9491,144.9416 236.4465,306.3825 4.5376,39.604 1.8187,113.1411 -5.4391,147.1013 -15.3506,71.8287 -44.0762,125.3735 -93.8172,174.8765 -55.1933,54.9292 -130.9908,93.9896 -230.6557,118.8629 -59.3604,14.8146 -63.9916,15.13 -256.8487,17.4932 -99.0466,1.2137 -276.9134,2.2933 -395.2595,2.3991 l -215.17478,0.1924 z m 784.53958,514.7316 c 72.5181,-20.257 118.646,-57.4041 146.0397,-117.6066 11.8165,-25.9688 14.847,-39.6875 17.3738,-78.6473 7.3913,-113.9646 -26.2664,-184.3742 -108.2872,-226.5291 -42.8503,-22.0231 -47.7406,-22.8466 -152.4307,-25.6677 -50.9799,-1.3737 -170.1536,-2.1821 -264.8305,-1.7964 l -172.13985,0.7012 -0.67682,228.5709 -0.67681,228.5708 257.56238,-0.9342 c 254.4916,-0.9231 257.8069,-1.0025 278.066,-6.6616 z m -117.0226,-632.3106 c 58.7137,-1.4881 72.0047,-4.0114 105.7881,-20.0838 55.8208,-26.5567 90.2007,-66.3049 105.1504,-121.5689 7.275,-26.89329 6.4914,-104.42456 -1.3751,-136.0546 -12.4451,-50.03962 -37.6567,-81.31824 -83.5349,-103.63663 -13.552,-6.59266 -32.886,-13.80065 -42.9646,-16.01774 -26.6957,-5.87258 -171.9012,-9.40431 -350.6868,-8.52949 l -149.62925,0.73214 v 202.59534 202.59538 l 34.42796,1.4688 c 37.82499,1.6138 300.58509,0.5839 382.82419,-1.5005 z"
     id="path35"
     inkscape:connector-curvature="0"
     transform="matrix(0.07,0,0,0.07,5.5,797.5)" />
  <path
     style="fill:#555555;stroke-width:2.64830518;fill-opacity:1"
     d="M 2478.087,1203.4955 V 657.94466 h 9.269 9.2691 v 542.37284 c 0,418.3146 -0.7269,543.0998 -3.178,545.5509 -1.7478,1.7479 -5.9189,3.178 -9.269,3.178 h -6.0911 z"
     id="path37"
     inkscape:connector-curvature="0"
     transform="matrix(0.07,0,0,0.07,5.5,797.5)" />
  <path
     style="fill:#555555;stroke-width:3.74526906;fill-opacity:1"
     d="m 10.862165,1605.9522 -8.4268552,-1.1968 V 1209.89 c 0,-384.8927 0.1790133,-394.86541 7.0879556,-394.86541 6.5834676,0 7.2654236,4.59835 9.5813526,64.60589 1.371369,35.53324 1.973874,213.76122 1.3389,396.06222 L 19.28902,1607.149 Z"
     id="path39"
     inkscape:connector-curvature="0"
     transform="matrix(0.07,0,0,0.07,5.5,797.5)" />
  <path
     style="fill:#555555;stroke-width:3.74526906;fill-opacity:1"
     d="m 21.457334,1629.3085 c 0.179712,-4.363 1.067178,-5.2505 2.262766,-2.2628 1.081898,2.7036 0.948843,5.9339 -0.295679,7.1784 -1.244521,1.2446 -2.129711,-0.9675 -1.967087,-4.9156 z"
     id="path41"
     inkscape:connector-curvature="0"
     transform="matrix(0.07,0,0,0.07,5.5,797.5)" />
  <path
     style="fill:#555555;stroke-width:3.74526906;fill-opacity:1"
     d="m 3.5644451,1750.859 c 1.2834074,-76.4819 3.2397535,-139.9642 4.3474355,-141.0718 9.6480844,-9.6481 12.7850764,28.7246 13.0265144,159.3447 l 0.22326,120.7849 H 11.196316 1.2309773 Z"
     id="path43"
     inkscape:connector-curvature="0"
     transform="matrix(0.07,0,0,0.07,5.5,797.5)" />
  <path
     style="fill:#555555;stroke-width:3.74526906;fill-opacity:1;filter:url(#filter4549);stroke:#555555;stroke-opacity:1"
     d="M 2.7047519,703.60284 C 2.8529451,644.38077 4.3626027,537.78105 6.0595466,466.71457 8.7960379,352.11281 10.037198,334.43364 17.03644,310.35901 41.760986,225.31633 93.668264,147.14386 160.94376,93.634275 197.18427,64.809288 260.14038,32.642712 307.67473,18.664046 339.45493,9.3182832 347.80622,8.5855011 453.74022,5.8475664 598.00199,2.1190254 1884.5022,2.1366641 2039.8616,5.8693265 c 135.4966,3.2554252 148.9826,5.6097795 216.7081,37.8323965 133.1393,63.345267 220.2695,183.923257 236.2111,326.888217 4.355,39.05587 5.4846,223.17652 1.5975,260.36707 -1.6422,15.71096 -4.0207,23.02101 -7.4906,23.02101 -2.7964,0 -5.1782,-1.26403 -5.293,-2.80895 -0.1146,-1.54492 -1.6644,-67.69574 -3.4436,-147.00181 -1.7812,-79.38959 -5.1941,-154.29205 -7.5942,-166.66445 -7.1285,-36.74823 -32.7436,-96.97323 -56.9718,-133.94932 -12.4649,-19.02328 -37.1864,-49.11488 -54.9369,-66.87021 -49.046,-49.059623 -98.8785,-78.434464 -168.9758,-99.606627 -31.3835,-9.479059 -34.3566,-9.664239 -209.7351,-13.063481 -97.8451,-1.896467 -501.4915,-2.630165 -896.9919,-1.630443 C 310.62842,24.334948 345.94144,23.424806 290.59779,42.804338 154.18457,90.571772 45.809506,217.81107 29.036425,349.89419 27.024464,365.7378 24.35588,468.8681 23.106239,579.07264 21.856598,689.27718 19.8738,786.60736 18.700023,795.36192 c -1.655437,12.347 -3.718939,15.9174 -9.1994274,15.9174 -6.7659505,0 -7.0538703,-4.56193 -6.7958437,-107.67648 z"
     id="path45"
     inkscape:connector-curvature="0"
     transform="matrix(0.07,0,0,0.07,5.5,797.5)" />
  <path
     style="fill:#555555;stroke-width:1.32415259;fill-opacity:1"
     d=""
     id="path47"
     inkscape:connector-curvature="0"
     transform="matrix(0.07,0,0,0.07,5.5,797.5)" />
  <path
     style="fill:#555555;stroke-width:1.32415259;fill-opacity:1"
     d=""
     id="path49"
     inkscape:connector-curvature="0"
     transform="matrix(0.07,0,0,0.07,5.5,797.5)" />
</svg>
