<?xml version="1.0" encoding="UTF-8" standalone="no"?>
<!-- Created with Inkscape (http://www.inkscape.org/) -->

<svg
   xmlns:dc="http://purl.org/dc/elements/1.1/"
   xmlns:cc="http://creativecommons.org/ns#"
   xmlns:rdf="http://www.w3.org/1999/02/22-rdf-syntax-ns#"
   xmlns:svg="http://www.w3.org/2000/svg"
   xmlns="http://www.w3.org/2000/svg"
   xmlns:sodipodi="http://sodipodi.sourceforge.net/DTD/sodipodi-0.dtd"
   xmlns:inkscape="http://www.inkscape.org/namespaces/inkscape"
   width="210mm"
   height="297mm"
   viewBox="0 0 210 297"
   version="1.1"
   id="svg6376"
   inkscape:version="0.92.2 (5c3e80d, 2017-08-06)"
   sodipodi:docname="jquery-2.svg">
  <defs
     id="defs6370" />
  <sodipodi:namedview
     id="base"
     pagecolor="#ffffff"
     bordercolor="#666666"
     borderopacity="1.0"
     inkscape:pageopacity="0.0"
     inkscape:pageshadow="2"
     inkscape:zoom="0.35"
     inkscape:cx="-64.285714"
     inkscape:cy="560"
     inkscape:document-units="mm"
     inkscape:current-layer="g6346"
     showgrid="false"
     inkscape:window-width="1920"
     inkscape:window-height="1137"
     inkscape:window-x="-8"
     inkscape:window-y="-8"
     inkscape:window-maximized="1" />
  <metadata
     id="metadata6373">
    <rdf:RDF>
      <cc:Work
         rdf:about="">
        <dc:format>image/svg+xml</dc:format>
        <dc:type
           rdf:resource="http://purl.org/dc/dcmitype/StillImage" />
        <dc:title></dc:title>
      </cc:Work>
    </rdf:RDF>
  </metadata>
  <g
     inkscape:label="Taso 1"
     inkscape:groupmode="layer"
     id="layer1">
    <g
       id="g6346"
       transform="matrix(1.2909842,0,0,1.2909842,48.106012,78.482082)"
       style="fill:#21609b">
      <path
         d="m 88.708,75.464 -0.402,1.042 C 81.456,89.846 69.317,98.03 52.003,98.391 43.909,98.558 36.197,96.481 31.159,94.223 20.287,89.338 11.142,80.279 6.148,70.6 -1.016,56.725 -2.308,37.424 12.588,23.008 c 0.23,0 -1.807,3.126 -1.577,3.126 l -0.41,1.334 C -0.133,61.074 32.938,89.874 65.086,86.58 72.812,85.788 82.664,81.557 88.708,75.464"
         id="path6340"
         inkscape:connector-curvature="0"
         style="fill:#555555;fill-opacity:1" />
      <path
         d="M 69.254,61.568 C 77.342,61.623 85.79,57.843 90.793,52.536 86.416,63.646 73.743,70.787 56.749,68.516 42.519,66.612 28.964,52.293 27.568,37.945 26.547,27.503 30.186,21.271 36.183,13.711 c -2.084,3.954 -2.863,7.003 -3.057,8.948 -2.278,22.588 18.044,38.79 36.128,38.909"
         id="path6342"
         inkscape:connector-curvature="0"
         style="fill:#555555;fill-opacity:1" />
      <path
         d="m 89.98,33.512 c -1.257,2.884 -8.496,8.33 -11.693,9.011 -12.659,2.697 -20.766,-3.306 -25.013,-10.137 -0.631,-1.02 -1.798,-3.806 -2.007,-4.515 -1.647,-5.6 -0.89,-14.07 4.023,-18.454 -1.48,4.169 -1.696,9.011 -0.917,12.159 0.472,1.903 1.91,5.226 3.349,7.316 2.618,3.807 4.279,4.732 7.642,6.754 1.515,0.91 3.14,1.64 3.842,1.84 3.189,0.939 9.922,3.412 20.775,-3.974"
         id="path6344"
         inkscape:connector-curvature="0"
         style="fill:#555555;fill-opacity:1" />
    </g>
  </g>
</svg>
